<?xml version="1.0" encoding="utf-8"?>
<!-- Generator: Adobe Illustrator 16.0.4, SVG Export Plug-In . SVG Version: 6.00 Build 0)  -->
<!DOCTYPE svg PUBLIC "-//W3C//DTD SVG 1.1//EN" "http://www.w3.org/Graphics/SVG/1.1/DTD/svg11.dtd">
<svg version="1.1" id="Layer_1" xmlns="http://www.w3.org/2000/svg" xmlns:xlink="http://www.w3.org/1999/xlink" x="0px" y="0px"
	 width="428.962px" height="117.851px" viewBox="0 0 428.962 117.851" enable-background="new 0 0 428.962 117.851"
	 xml:space="preserve">
<path fill="#FFFFFF" d="M187.782,73.726c0.51,0.976,0.765,2.074,0.765,3.299c0,1.224-0.255,2.317-0.765,3.281
	c-0.51,0.963-1.225,1.717-2.143,2.26c-0.918,0.545-1.955,0.816-3.11,0.816c-1.156,0-2.193-0.271-3.111-0.816
	c-0.918-0.543-1.638-1.297-2.158-2.26c-0.522-0.964-0.783-2.058-0.783-3.281c0-1.225,0.261-2.323,0.783-3.299
	c0.521-0.974,1.24-1.733,2.158-2.277s1.955-0.816,3.111-0.816c1.155,0,2.192,0.272,3.11,0.816S187.272,72.752,187.782,73.726z
	 M209.474,71.466c-0.918-0.556-1.943-0.834-3.076-0.834c-1.135,0-2.16,0.278-3.078,0.834c-0.918,0.555-1.637,1.32-2.158,2.295
	s-0.782,2.062-0.782,3.264s0.261,2.283,0.782,3.246c0.521,0.965,1.24,1.724,2.158,2.279c0.918,0.555,1.943,0.832,3.078,0.832
	c1.133,0,2.158-0.277,3.076-0.832c0.918-0.556,1.644-1.314,2.176-2.279c0.533-0.963,0.799-2.045,0.799-3.246
	s-0.266-2.289-0.799-3.264C211.117,72.786,210.392,72.021,209.474,71.466z M91.479,70.496c-1.654,0-2.998,0.443-4.029,1.35
	s-1.683,1.629-1.955,3.629h11.322c-0.204-2-0.771-2.723-1.7-3.629C94.187,70.939,92.975,70.496,91.479,70.496z M131.055,70.496
	c-1.655,0-2.998,0.443-4.029,1.35s-1.684,1.629-1.955,3.629h11.322c-0.205-2-0.771-2.723-1.701-3.629S132.551,70.496,131.055,70.496
	z M242.725,71.466c-0.918-0.556-1.944-0.834-3.077-0.834s-2.158,0.278-3.076,0.834c-0.918,0.555-1.645,1.32-2.177,2.295
	s-0.799,2.062-0.799,3.264s0.267,2.283,0.799,3.246c0.532,0.965,1.259,1.724,2.177,2.279c0.918,0.555,1.943,0.832,3.076,0.832
	s2.159-0.277,3.077-0.832c0.918-0.556,1.638-1.314,2.159-2.279c0.521-0.963,0.781-2.045,0.781-3.246s-0.26-2.289-0.781-3.264
	S243.643,72.021,242.725,71.466z M70.857,71.466c-0.918-0.556-1.943-0.834-3.076-0.834c-1.134,0-2.159,0.278-3.077,0.834
	c-0.918,0.555-1.644,1.314-2.177,2.277c-0.532,0.964-0.799,2.046-0.799,3.247c0,1.202,0.267,2.29,0.799,3.265
	c0.533,0.975,1.259,1.739,2.177,2.295c0.918,0.555,1.943,0.832,3.077,0.832c1.133,0,2.158-0.277,3.076-0.832
	c0.918-0.556,1.639-1.32,2.16-2.295c0.521-0.975,0.781-2.062,0.781-3.265c0-1.201-0.261-2.283-0.781-3.247
	C72.496,72.78,71.775,72.021,70.857,71.466z M297.771,71.466c-0.918-0.556-1.945-0.834-3.078-0.834s-2.158,0.278-3.076,0.834
	c-0.918,0.555-1.645,1.32-2.176,2.295c-0.533,0.975-0.799,2.062-0.799,3.264s0.266,2.283,0.799,3.246
	c0.531,0.965,1.258,1.724,2.176,2.279c0.918,0.555,1.943,0.832,3.076,0.832s2.16-0.277,3.078-0.832
	c0.918-0.556,1.637-1.314,2.158-2.279c0.521-0.963,0.781-2.045,0.781-3.246s-0.26-2.289-0.781-3.264S298.688,72.021,297.771,71.466z
	 M424.467,105.547c-8.757,8.323-21.49,12.275-37.828,12.261c-54.988-0.049-110.072-0.019-165.072-0.019c0,0.006,0,0.011,0,0.017
	c-14,0-27.221,0.007-40.885-0.002c-42.49-0.022-84.994,0.213-127.475-0.193C33.26,117.418,18,111.206,8.045,100.917
	c-16.27-16.812-7.104-37.053,20.645-46.981c3.147-1.126,5.146-2.446,6.184-4.723c9.194-20.19,49.167-30.636,79.968-21.009
	c6.729,2.103,6.806,2.134,11.054-1.705c16.246-14.678,38.858-23.449,67.81-25.917c30.326-2.585,56.514,3.636,79.874,14.797
	c8.25,3.941,13.334,7.691,16.971,12.593c1.546,2.084,2.57,2.875,6.557,2.651c5.572-0.311,11.361-0.302,16.871,0.249
	c17.669,1.769,30.903,7.609,39.863,16.883c1.984,2.053,3.988,2.307,7.696,1.787c5.444-0.763,11.16-1.338,16.715-1.219
	C409.025,48.978,440.956,89.872,424.467,105.547z M77.566,61.486c0-0.521-0.389-0.94-0.705-1.259
	c-0.318-0.316-0.967-0.476-1.488-0.476c-0.499,0-0.938,0.159-1.266,0.476c-0.328,0.318-0.541,0.737-0.541,1.259v9.18
	c0-0.974-1.708-1.733-2.842-2.278c-1.133-0.543-2.309-0.815-3.623-0.815c-1.631,0-3.109,0.407-4.436,1.224s-2.367,1.944-3.127,3.383
	c-0.76,1.439-1.135,3.043-1.135,4.812s0.415,3.372,1.23,4.812c0.816,1.439,1.956,2.572,3.396,3.399s3.06,1.241,4.806,1.241
	c1.744,0,3.381-0.414,4.797-1.241c1.417-0.827,2.648-1.96,3.475-3.399c0.828-1.439,1.459-3.043,1.459-4.812V61.486z M99.944,76.533
	c0-1.79-0.34-3.192-1.021-4.575c-0.68-1.383-1.654-2.459-2.924-3.23c-1.27-0.77-2.776-1.155-4.521-1.155
	c-1.768,0-3.35,0.402-4.743,1.207s-2.481,1.927-3.265,3.366c-0.781,1.439-1.172,3.065-1.172,4.879s0.413,3.434,1.24,4.861
	c0.828,1.428,1.978,2.545,3.451,3.35c1.473,0.805,3.139,1.207,4.998,1.207c1.043,0,2.137-0.194,3.281-0.579s2.102-0.887,2.873-1.498
	c0.362-0.271,0.544-0.614,0.544-1.022c0-0.431-0.204-0.822-0.612-1.162c-0.25-0.227-0.59-0.351-1.02-0.351
	c-0.432,0-0.805,0.102-1.122,0.35c-0.476,0.363-1.083,0.623-1.819,0.871c-0.736,0.25-1.445,0.283-2.125,0.283
	c-1.723,0-3.179-0.674-4.369-1.648c-1.189-0.973-1.91-2.211-2.158-4.211h12.92c0.453,0,0.826,0.229,1.121-0.055
	S99.944,76.965,99.944,76.533z M118.44,80.866c0-1.405-0.517-2.551-1.548-3.434c-1.031-0.885-2.782-1.576-5.252-2.074
	c-1.202-0.25-2.12-0.504-2.754-0.766c-0.635-0.26-1.066-0.543-1.293-0.85s-0.34-0.686-0.34-1.139c0-0.635,0.334-1.127,1.004-1.479
	c0.668-0.351,1.523-0.526,2.566-0.526c0.906,0,1.678,0.107,2.312,0.322c0.634,0.216,1.234,0.584,1.801,1.105
	c0.477,0.431,1.009,0.646,1.599,0.646c0.386,0,0.702-0.091,0.952-0.272c0.385-0.317,0.578-0.669,0.578-1.054
	c0-0.363-0.148-0.726-0.442-1.088c-0.68-0.839-1.604-1.496-2.771-1.973c-1.168-0.477-2.488-0.714-3.961-0.714
	c-1.202,0-2.336,0.192-3.4,0.578c-1.066,0.386-1.927,0.964-2.584,1.733c-0.658,0.771-0.986,1.712-0.986,2.822
	c0,2.743,2.176,4.533,6.528,5.372c1.677,0.317,2.867,0.708,3.569,1.173c0.703,0.465,1.055,1.049,1.055,1.751
	c0,0.726-0.357,1.304-1.07,1.734c-0.715,0.431-1.718,0.646-3.01,0.646c-0.975,0-1.893-0.175-2.754-0.527
	c-0.861-0.351-1.508-0.764-1.938-1.24c-0.408-0.408-0.84-0.612-1.293-0.612c-0.362,0-0.76,0.159-1.189,0.476
	c-0.453,0.341-0.68,0.783-0.68,1.326c0,0.408,0.146,0.76,0.441,1.055c0.771,0.771,1.836,1.394,3.196,1.869
	c1.36,0.477,2.81,0.715,4.353,0.715c1.541,0,2.861-0.244,3.961-0.731c1.099-0.487,1.932-1.155,2.498-2.006
	S118.44,81.909,118.44,80.866z M139.52,76.533c0-1.79-0.34-3.192-1.02-4.575s-1.654-2.459-2.924-3.23
	c-1.27-0.77-2.777-1.155-4.521-1.155c-1.769,0-3.35,0.402-4.744,1.207c-1.394,0.805-2.481,1.927-3.264,3.366
	c-0.781,1.439-1.173,3.065-1.173,4.879s0.413,3.434,1.241,4.861c0.827,1.428,1.977,2.545,3.451,3.35
	c1.473,0.805,3.139,1.207,4.998,1.207c1.042,0,2.136-0.194,3.281-0.579c1.144-0.385,2.102-0.887,2.873-1.498
	c0.361-0.271,0.543-0.614,0.543-1.022c0-0.431-0.203-0.822-0.611-1.162c-0.25-0.227-0.59-0.351-1.021-0.351s-0.805,0.102-1.122,0.35
	c-0.476,0.363-1.082,0.623-1.818,0.871c-0.737,0.25-1.445,0.283-2.125,0.283c-1.723,0-3.18-0.674-4.369-1.648
	c-1.19-0.973-1.91-2.211-2.159-4.211h12.92c0.453,0,0.827,0.229,1.122-0.055S139.52,76.965,139.52,76.533z M156.908,69.408
	c0-0.544-0.326-0.997-1.006-1.36c-0.681-0.361-1.593-0.543-2.794-0.543c-1.134,0-2.142,0.227-3.14,0.68
	c-0.996,0.453-1.402,1.076-2.402,1.869v-0.646c0-1.134-0.523-1.7-1.657-1.7c-0.544,0-0.919,0.148-1.214,0.442
	s-0.129,0.714-0.129,1.258v15.198c0,0.566-0.138,0.992,0.157,1.275c0.294,0.283,0.429,0.424,0.973,0.424
	c0.566,0,1.048-0.146,1.333-0.441c0.283-0.295,0.537-0.714,0.537-1.258v-9.928c0-1.27,0.385-2.278,1.383-3.026
	s2.199-1.122,3.83-1.122c0.566,0,1.304,0.08,2.211,0.238c0.227,0.045,0.396,0.067,0.51,0.067c0.702,0,1.156-0.362,1.359-1.088
	C156.883,69.681,156.908,69.567,156.908,69.408z M169.848,84.541c0-0.498-0.143-1.057-0.426-1.375
	c-0.283-0.316-0.629-0.691-1.037-0.691h-1.155c-0.726,0-1.378-0.09-1.876-0.703c-0.498-0.611-0.787-1.154-0.787-2.062v-8.235h2.969
	c0.477,0,0.861-0.205,1.156-0.478s0.441-0.683,0.441-1.091c0-0.453-0.146-0.795-0.441-1.066s-0.68-0.365-1.156-0.365h-2.969v-4.982
	c0-0.499-0.079-0.906-0.396-1.224s-0.646-0.477-1.144-0.477c-0.5,0-0.827,0.159-1.144,0.477c-0.318,0.317-0.316,0.725-0.316,1.224
	v4.982h-1.885c-0.477,0-0.861,0.114-1.156,0.386s-0.441,0.611-0.441,1.064c0,0.408,0.146,0.788,0.441,1.062
	c0.295,0.271,0.68,0.488,1.156,0.488h1.885v8.235c0,1.247,0.1,2.411,0.621,3.409c0.521,0.996,1.081,1.826,1.999,2.404
	s1.933,0.951,3.043,0.951h0.612c0.589,0,1.07-0.242,1.444-0.561C169.66,85.598,169.848,85.039,169.848,84.541z M191.879,77.024
	c0-1.836-0.402-3.469-1.207-4.896s-1.915-2.544-3.331-3.349c-1.418-0.805-3.021-1.207-4.812-1.207c-1.813,0-3.434,0.402-4.862,1.207
	c-1.428,0.805-2.538,1.921-3.332,3.349s-1.19,3.061-1.19,4.896c0,1.813,0.396,3.434,1.19,4.861s1.904,2.545,3.332,3.35
	c1.429,0.805,3.049,1.207,4.862,1.207s3.428-0.402,4.845-1.207c1.416-0.805,2.521-1.922,3.314-3.35
	C191.482,80.458,191.879,78.838,191.879,77.024z M215.788,77.024c0-1.768-0.398-3.371-1.215-4.811
	c-0.815-1.439-1.929-2.573-3.367-3.4c-1.44-0.828-3-1.241-4.744-1.241c-1.746,0-3.262,0.413-4.679,1.241
	c-1.416,0.827-2.41,1.961-3.236,3.4c-0.828,1.439-0.98,3.043-0.98,4.811v15.504c0,0.521-0.089,0.939,0.24,1.258
	c0.328,0.317,0.488,0.477,0.986,0.477c0.521,0,0.955-0.159,1.271-0.477c0.318-0.318,0.502-0.736,0.502-1.258v-9.18
	c1,0.975,1.73,1.733,2.865,2.277c1.133,0.544,2.331,0.816,3.646,0.816c1.632,0,3.111-0.408,4.437-1.225
	c1.326-0.815,2.368-1.943,3.128-3.383S215.788,78.792,215.788,77.024z M224.566,69.442c0-0.521-0.03-0.94-0.347-1.258
	c-0.318-0.317-0.606-0.477-1.128-0.477c-0.498,0-0.844,0.159-1.172,0.477s-0.354,0.736-0.354,1.258v15.13
	c0,0.499,0.001,0.913,0.33,1.241c0.328,0.328,0.58,0.492,1.078,0.492c0.521,0,0.893-0.164,1.211-0.492
	c0.316-0.328,0.381-0.742,0.381-1.241V69.442z M225.267,62.438c0-0.612-0.221-1.139-0.664-1.582
	c-0.441-0.441-0.969-0.662-1.58-0.662c-0.612,0-1.139,0.221-1.581,0.662c-0.442,0.443-0.663,0.97-0.663,1.582
	c0,0.611,0.221,1.139,0.663,1.58c0.442,0.442,0.969,0.664,1.581,0.664c0.611,0,1.139-0.222,1.58-0.664
	C225.046,63.577,225.267,63.05,225.267,62.438z M249.566,77.024c0-1.768-0.698-3.371-1.524-4.811
	c-0.828-1.439-2.233-2.573-3.651-3.4c-1.416-0.828-2.997-1.241-4.743-1.241s-3.338,0.413-4.777,1.241
	c-1.439,0.827-2.565,1.961-3.382,3.4c-0.815,1.439-1.223,3.043-1.223,4.811s0.38,3.371,1.14,4.811
	c0.759,1.439,1.803,2.567,3.129,3.383c1.326,0.816,2.812,1.225,4.442,1.225c1.314,0,2.547-0.272,3.682-0.816
	c1.133-0.544,1.908-1.303,2.908-2.277v1.258c0,0.498,0.218,0.912,0.546,1.24c0.328,0.329,0.795,0.494,1.295,0.494
	c0.498,0,1.054-0.165,1.382-0.494c0.328-0.328,0.777-0.742,0.777-1.24V77.024z M268.241,80.866c0-1.405-0.516-2.551-1.547-3.434
	c-1.031-0.885-2.783-1.576-5.254-2.074c-1.201-0.25-2.119-0.504-2.754-0.766c-0.635-0.26-1.064-0.543-1.291-0.85
	s-0.34-0.686-0.34-1.139c0-0.635,0.334-1.127,1.002-1.479c0.668-0.351,1.525-0.526,2.566-0.526c0.908,0,1.678,0.107,2.312,0.322
	c0.635,0.216,1.236,0.584,1.803,1.105c0.477,0.431,1.008,0.646,1.598,0.646c0.385,0,0.703-0.091,0.951-0.272
	c0.387-0.317,0.578-0.669,0.578-1.054c0-0.363-0.146-0.726-0.441-1.088c-0.68-0.839-1.604-1.496-2.771-1.973
	s-2.486-0.714-3.961-0.714c-1.201,0-2.334,0.192-3.398,0.578c-1.066,0.386-1.928,0.964-2.586,1.733
	c-0.656,0.771-0.984,1.712-0.984,2.822c0,2.743,2.176,4.533,6.527,5.372c1.678,0.317,2.867,0.708,3.57,1.173
	c0.701,0.465,1.053,1.049,1.053,1.751c0,0.726-0.355,1.304-1.07,1.734c-0.713,0.431-1.717,0.646-3.008,0.646
	c-0.977,0-1.895-0.175-2.756-0.527c-0.861-0.351-1.506-0.764-1.938-1.24c-0.408-0.408-0.838-0.612-1.291-0.612
	c-0.363,0-0.76,0.159-1.191,0.476c-0.453,0.341-0.68,0.783-0.68,1.326c0,0.408,0.148,0.76,0.443,1.055
	c0.77,0.771,1.836,1.394,3.195,1.869c1.359,0.477,2.811,0.715,4.352,0.715s2.861-0.244,3.961-0.731s1.932-1.155,2.5-2.006
	C267.958,82.854,268.241,81.909,268.241,80.866z M282.011,84.541c0-0.498-0.143-1.057-0.426-1.375
	c-0.283-0.316-0.629-0.691-1.035-0.691h-1.156c-0.727,0-1.46-0.09-1.958-0.703c-0.5-0.611-0.869-1.154-0.869-2.062v-8.235h3.132
	c0.477,0,0.861-0.205,1.156-0.478s0.443-0.683,0.443-1.091c0-0.453-0.148-0.795-0.443-1.066s-0.68-0.365-1.156-0.365h-3.132v-4.982
	c0-0.499-0.019-0.906-0.335-1.224c-0.318-0.317-0.585-0.477-1.083-0.477s-0.867,0.159-1.184,0.477
	c-0.318,0.317-0.398,0.725-0.398,1.224v4.982h-1.722c-0.477,0-0.861,0.114-1.156,0.386s-0.441,0.611-0.441,1.064
	c0,0.408,0.146,0.788,0.441,1.062c0.295,0.271,0.68,0.488,1.156,0.488h1.722v8.235c0,1.247,0.182,2.411,0.703,3.409
	c0.521,0.996,1.163,1.826,2.081,2.404s1.932,0.951,3.043,0.951h0.611c0.59,0,1.07-0.242,1.445-0.561
	C281.823,85.598,282.011,85.039,282.011,84.541z M304.566,77.024c0-1.768-0.676-3.371-1.502-4.811
	c-0.828-1.439-2.211-2.573-3.627-3.4c-1.418-0.828-2.999-1.241-4.745-1.241s-3.338,0.413-4.777,1.241
	c-1.439,0.827-2.566,1.961-3.383,3.4s-1.223,3.043-1.223,4.811s0.378,3.371,1.138,4.811c0.758,1.439,1.8,2.567,3.126,3.383
	c1.326,0.816,2.805,1.225,4.438,1.225c1.314,0,2.536-0.272,3.669-0.816s1.887-1.303,2.887-2.277v1.258
	c0,0.498,0.234,0.912,0.562,1.24c0.328,0.329,0.812,0.494,1.312,0.494c0.498,0,1.043-0.165,1.371-0.494
	c0.328-0.328,0.754-0.742,0.754-1.24V77.024z M326.566,76.242c0-1.836-0.315-3.405-1.017-4.709c-0.703-1.304-1.644-2.295-2.89-2.976
	c-1.248-0.68-2.666-1.02-4.23-1.02c-1.135,0-2.227,0.199-3.223,0.596c-0.998,0.396-1.641,0.957-2.641,1.682v-0.373
	c0-0.521-0.06-0.94-0.376-1.258c-0.318-0.317-0.636-0.477-1.157-0.477c-0.5,0-0.824,0.159-1.152,0.477s-0.314,0.736-0.314,1.258
	v15.164c0,0.498-0.028,0.912,0.3,1.24c0.328,0.329,0.55,0.494,1.05,0.494c0.521,0,0.912-0.165,1.23-0.494
	c0.316-0.328,0.42-0.742,0.42-1.24v-9.588c0-0.816,0.301-1.553,0.742-2.211c0.441-0.656,1.134-1.178,1.915-1.563
	s1.697-0.578,2.65-0.578c1.631,0,3.036,0.471,4.021,1.411c0.986,0.941,1.672,2.329,1.672,4.165v8.364
	c0,0.498-0.037,0.912,0.291,1.24c0.328,0.329,0.541,0.494,1.039,0.494c0.5,0,0.891-0.165,1.221-0.494
	c0.328-0.328,0.449-0.742,0.449-1.24V76.242z"/>
</svg>
